{"accessors":[{"bufferView":0,"byteOffset":0,"componentType":5126,"count":436,"max":[0.08320000000000001,0.1,0.09945218953682733],"min":[-0.09945218953682733,-0.1,-0.09945218953682733],"type":"VEC3"},{"bufferView":0,"byteOffset":5232,"componentType":5126,"count":52,"max":[0.08320000000000001,0.0555,0.055095342512442],"min":[0.08320000000000001,-0.0555,-0.05509534251244202],"type":"VEC3"},{"bufferView":0,"byteOffset":5856,"componentType":5126,"count":54,"max":[0.19162463307205,0.055500000000005004,0.055095342512442],"min":[0.08320000000000001,-0.0555,-0.05509534251244202],"type":"VEC3"},{"bufferView":0,"byteOffset":6504,"componentType":5126,"count":22,"max":[0.1995,0.055500000000005004,0.055095342512442],"min":[0.19162463307205,-0.0555,1.667045961768e-17],"type":"VEC3"},{"bufferView":0,"byteOffset":6768,"componentType":5126,"count":22,"max":[0.1995,0.055500000000005004,4.8863407285985244e-17],"min":[0.19162463307205,-0.0555,-0.05509534251244201],"type":"VEC3"},{"bufferView":0,"byteOffset":7032,"componentType":5126,"count":507,"max":[1.0,1.0,1.0],"min":[-1.0,-1.0,-1.0],"type":"VEC3"},{"bufferView":0,"byteOffset":13116,"componentType":5126,"count":195,"max":[0.19804542038256176,0.1995,0.19881860635483062],"min":[-0.1995,-0.1995,-0.19881860635483062],"type":"VEC3"},{"bufferView":0,"byteOffset":15456,"componentType":5126,"count":52,"max":[0.08320000000000001,0.059006440326459,0.05857621694101312],"min":[0.08320000000000001,-0.05900644032645,-0.058576216941013136],"type":"VEC3"},{"bufferView":0,"byteOffset":16080,"componentType":5126,"count":431,"max":[0.08320000000000001,0.10200000000000001,0.10144123332756388],"min":[-0.10144123332756388,-0.10200000000000001,-0.10144123332756388],"type":"VEC3"},{"bufferView":0,"byteOffset":21252,"componentType":5126,"count":54,"max":[0.19103402838238,0.0575,0.0570807602606381],"min":[0.08320000000000001,-0.0575,-0.05708076026063812],"type":"VEC3"},{"bufferView":0,"byteOffset":21900,"componentType":5126,"count":32,"max":[0.19162463307205,0.057499999999996,0.0570807602606381],"min":[0.19103402838238,-0.0575,1.635320204357e-17],"type":"VEC3"},{"bufferView":0,"byteOffset":22284,"componentType":5126,"count":32,"max":[0.19162463307205,0.057499999999996,4.6934498705900003e-17],"min":[0.19103402838238,-0.0575,-0.057080760260638116],"type":"VEC3"},{"bufferView":0,"byteOffset":22668,"componentType":5126,"count":54,"max":[0.19162463307205,0.055500000000003,0.055095342512442],"min":[0.08320000000000001,-0.0555,-0.05509534251244202],"type":"VEC3"},{"bufferView":0,"byteOffset":23316,"componentType":5126,"count":52,"max":[0.08320000000000001,0.0555,0.055095342512442],"min":[0.08320000000000001,-0.0555,-0.05509534251244202],"type":"VEC3"},{"bufferView":0,"byteOffset":23940,"componentType":5126,"count":436,"max":[0.08320000000000001,0.1,0.09945218953682733],"min":[-0.09945218953682733,-0.1,-0.09945218953682733],"type":"VEC3"},{"bufferView":0,"byteOffset":29172,"componentType":5126,"count":415,"max":[0.08320000000000001,0.1995,0.1995],"min":[-0.1995,-0.1995,-0.1995],"type":"VEC3"},{"bufferView":0,"byteOffset":34152,"componentType":5126,"count":96,"max":[0.19103402838238,0.18132294394256,0.18032963788350992],"min":[0.08320000000000001,-0.18132294394249998,1.635320204357e-17],"type":"VEC3"},{"bufferView":0,"byteOffset":35304,"componentType":5126,"count":96,"max":[0.19103402838238,0.18132294394256,4.678984227734e-17],"min":[0.08320000000000001,-0.18132294394249998,-0.18032963788350995],"type":"VEC3"},{"bufferView":0,"byteOffset":36456,"componentType":5126,"count":54,"max":[0.19103402838238,0.057500000000001,0.0570807602606381],"min":[0.18894443627691002,-0.0575,-0.057080760260638116],"type":"VEC3"},{"bufferView":0,"byteOffset":37104,"componentType":5126,"count":96,"max":[0.18894443627691002,0.17912009937469,4.6278039820640004e-17],"min":[0.08320000000000001,-0.1791200993746,-0.1781388607286702],"type":"VEC3"},{"bufferView":0,"byteOffset":38256,"componentType":5126,"count":96,"max":[0.18894443627691002,0.17912009937469,0.17813886072867016],"min":[0.08320000000000001,-0.1791200993746,1.609730081523e-17],"type":"VEC3"},{"bufferView":0,"byteOffset":39408,"componentType":5126,"count":415,"max":[0.08320000000000001,0.1975,0.1975],"min":[-0.1975,-0.1975,-0.1975],"type":"VEC3"},{"bufferView":0,"byteOffset":44388,"componentType":5126,"count":415,"max":[0.08320000000000001,0.1975,0.1975],"min":[-0.1975,-0.1975,-0.1975],"type":"VEC3"},{"bufferView":0,"byteOffset":49368,"componentType":5126,"count":96,"max":[0.18894443627691002,0.17912009937469,0.17813886072867016],"min":[0.08320000000000001,-0.1791200993746,1.609730081523e-17],"type":"VEC3"},{"bufferView":0,"byteOffset":50520,"componentType":5126,"count":96,"max":[0.18894443627691002,0.17912009937469,4.6278039820640004e-17],"min":[0.08320000000000001,-0.1791200993746,-0.1781388607286702],"type":"VEC3"},{"bufferView":0,"byteOffset":51672,"componentType":5126,"count":54,"max":[0.18894443627691002,0.0575,0.0570807602606381],"min":[0.08320000000000001,-0.0575,-0.05708076026063812],"type":"VEC3"},{"bufferView":0,"byteOffset":52320,"componentType":5126,"count":52,"max":[0.08320000000000001,0.059006440326459,0.05857621694101312],"min":[0.08320000000000001,-0.05900644032645,-0.058576216941013136],"type":"VEC3"},{"bufferView":0,"byteOffset":52944,"componentType":5126,"count":276,"max":[0.08320000000000001,0.10200000000000001,0.101762214457435],"min":[-0.10104996649570575,-0.10200000000000001,-0.10176221445743501],"type":"VEC3"},{"bufferView":1,"byteOffset":0,"componentType":5126,"count":436,"type":"VEC3"},{"bufferView":1,"byteOffset":5232,"componentType":5126,"count":52,"type":"VEC3"},{"bufferView":1,"byteOffset":5856,"componentType":5126,"count":54,"type":"VEC3"},{"bufferView":1,"byteOffset":6504,"componentType":5126,"count":22,"type":"VEC3"},{"bufferView":1,"byteOffset":6768,"componentType":5126,"count":22,"type":"VEC3"},{"bufferView":1,"byteOffset":7032,"componentType":5126,"count":507,"type":"VEC3"},{"bufferView":1,"byteOffset":13116,"componentType":5126,"count":195,"type":"VEC3"},{"bufferView":1,"byteOffset":15456,"componentType":5126,"count":52,"type":"VEC3"},{"bufferView":1,"byteOffset":16080,"componentType":5126,"count":431,"type":"VEC3"},{"bufferView":1,"byteOffset":21252,"componentType":5126,"count":54,"type":"VEC3"},{"bufferView":1,"byteOffset":21900,"componentType":5126,"count":32,"type":"VEC3"},{"bufferView":1,"byteOffset":22284,"componentType":5126,"count":32,"type":"VEC3"},{"bufferView":1,"byteOffset":22668,"componentType":5126,"count":54,"type":"VEC3"},{"bufferView":1,"byteOffset":23316,"componentType":5126,"count":52,"type":"VEC3"},{"bufferView":1,"byteOffset":23940,"componentType":5126,"count":436,"type":"VEC3"},{"bufferView":1,"byteOffset":29172,"componentType":5126,"count":415,"type":"VEC3"},{"bufferView":1,"byteOffset":34152,"componentType":5126,"count":96,"type":"VEC3"},{"bufferView":1,"byteOffset":35304,"componentType":5126,"count":96,"type":"VEC3"},{"bufferView":1,"byteOffset":36456,"componentType":5126,"count":54,"type":"VEC3"},{"bufferView":1,"byteOffset":37104,"componentType":5126,"count":96,"type":"VEC3"},{"bufferView":1,"byteOffset":38256,"componentType":5126,"count":96,"type":"VEC3"},{"bufferView":1,"byteOffset":39408,"componentType":5126,"count":415,"type":"VEC3"},{"bufferView":1,"byteOffset":44388,"componentType":5126,"count":415,"type":"VEC3"},{"bufferView":1,"byteOffset":49368,"componentType":5126,"count":96,"type":"VEC3"},{"bufferView":1,"byteOffset":50520,"componentType":5126,"count":96,"type":"VEC3"},{"bufferView":1,"byteOffset":51672,"componentType":5126,"count":54,"type":"VEC3"},{"bufferView":1,"byteOffset":52320,"componentType":5126,"count":52,"type":"VEC3"},{"bufferView":1,"byteOffset":52944,"componentType":5126,"count":276,"type":"VEC3"},{"bufferView":2,"byteOffset":0,"componentType":5123,"count":2466,"type":"SCALAR"},{"bufferView":2,"byteOffset":4932,"componentType":5123,"count":156,"type":"SCALAR"},{"bufferView":2,"byteOffset":5244,"componentType":5123,"count":156,"type":"SCALAR"},{"bufferView":2,"byteOffset":5556,"componentType":5123,"count":75,"type":"SCALAR"},{"bufferView":2,"byteOffset":5708,"componentType":5123,"count":75,"type":"SCALAR"},{"bufferView":2,"byteOffset":5860,"componentType":5123,"count":2934,"type":"SCALAR"},{"bufferView":2,"byteOffset":11728,"componentType":5123,"count":1080,"type":"SCALAR"},{"bufferView":2,"byteOffset":13888,"componentType":5123,"count":156,"type":"SCALAR"},{"bufferView":2,"byteOffset":14200,"componentType":5123,"count":2436,"type":"SCALAR"},{"bufferView":2,"byteOffset":19072,"componentType":5123,"count":156,"type":"SCALAR"},{"bufferView":2,"byteOffset":19384,"componentType":5123,"count":90,"type":"SCALAR"},{"bufferView":2,"byteOffset":19564,"componentType":5123,"count":90,"type":"SCALAR"},{"bufferView":2,"byteOffset":19744,"componentType":5123,"count":156,"type":"SCALAR"},{"bufferView":2,"byteOffset":20056,"componentType":5123,"count":156,"type":"SCALAR"},{"bufferView":2,"byteOffset":20368,"componentType":5123,"count":2466,"type":"SCALAR"},{"bufferView":2,"byteOffset":25300,"componentType":5123,"count":2304,"type":"SCALAR"},{"bufferView":2,"byteOffset":29908,"componentType":5123,"count":432,"type":"SCALAR"},{"bufferView":2,"byteOffset":30772,"componentType":5123,"count":432,"type":"SCALAR"},{"bufferView":2,"byteOffset":31636,"componentType":5123,"count":156,"type":"SCALAR"},{"bufferView":2,"byteOffset":31948,"componentType":5123,"count":432,"type":"SCALAR"},{"bufferView":2,"byteOffset":32812,"componentType":5123,"count":432,"type":"SCALAR"},{"bufferView":2,"byteOffset":33676,"componentType":5123,"count":2304,"type":"SCALAR"},{"bufferView":2,"byteOffset":38284,"componentType":5123,"count":2304,"type":"SCALAR"},{"bufferView":2,"byteOffset":42892,"componentType":5123,"count":432,"type":"SCALAR"},{"bufferView":2,"byteOffset":43756,"componentType":5123,"count":432,"type":"SCALAR"},{"bufferView":2,"byteOffset":44620,"componentType":5123,"count":156,"type":"SCALAR"},{"bufferView":2,"byteOffset":44932,"componentType":5123,"count":156,"type":"SCALAR"},{"bufferView":2,"byteOffset":45244,"componentType":5123,"count":1518,"type":"SCALAR"}],"asset":{"generator":"Open CASCADE Technology 7.8 [dev.opencascade.org]","version":"2.0"},"bufferViews":[{"buffer":0,"byteLength":56256,"byteOffset":0,"byteStride":12,"target":34962},{"buffer":0,"byteLength":56256,"byteOffset":56256,"byteStride":12,"target":34962},{"buffer":0,"byteLength":48280,"byteOffset":112512,"target":34963}],"buffers":[{"byteLength":160792,"uri":"oktavian_a.bin"}],"materials":[{"name":"mat_0","pbrMetallicRoughness":{"baseColorFactor":[0.6038273572921753,0.6038273572921753,0.6038273572921753,1.0]},"doubleSided":true}],"meshes":[{"name":"Cell_1_0","primitives":[{"attributes":{"NORMAL":28,"POSITION":0},"indices":56,"material":0,"mode":4},{"attributes":{"NORMAL":29,"POSITION":1},"indices":57,"material":0,"mode":4},{"attributes":{"NORMAL":30,"POSITION":2},"indices":58,"material":0,"mode":4},{"attributes":{"NORMAL":31,"POSITION":3},"indices":59,"material":0,"mode":4},{"attributes":{"NORMAL":32,"POSITION":4},"indices":60,"material":0,"mode":4}]},{"name":"Cell_5_0","primitives":[{"attributes":{"NORMAL":33,"POSITION":5},"indices":61,"material":0,"mode":4},{"attributes":{"NORMAL":34,"POSITION":6},"indices":62,"material":0,"mode":4}]},{"name":"Cell_2_2","primitives":[{"attributes":{"NORMAL":35,"POSITION":7},"indices":63,"material":0,"mode":4},{"attributes":{"NORMAL":36,"POSITION":8},"indices":64,"material":0,"mode":4},{"attributes":{"NORMAL":37,"POSITION":9},"indices":65,"material":0,"mode":4},{"attributes":{"NORMAL":38,"POSITION":10},"indices":66,"material":0,"mode":4},{"attributes":{"NORMAL":39,"POSITION":11},"indices":67,"material":0,"mode":4},{"attributes":{"NORMAL":40,"POSITION":12},"indices":68,"material":0,"mode":4},{"attributes":{"NORMAL":41,"POSITION":13},"indices":69,"material":0,"mode":4},{"attributes":{"NORMAL":42,"POSITION":14},"indices":70,"material":0,"mode":4}]},{"name":"Cell_4_2","primitives":[{"attributes":{"NORMAL":43,"POSITION":15},"indices":71,"material":0,"mode":4},{"attributes":{"NORMAL":44,"POSITION":16},"indices":72,"material":0,"mode":4},{"attributes":{"NORMAL":45,"POSITION":17},"indices":73,"material":0,"mode":4},{"attributes":{"NORMAL":46,"POSITION":18},"indices":74,"material":0,"mode":4},{"attributes":{"NORMAL":47,"POSITION":19},"indices":75,"material":0,"mode":4},{"attributes":{"NORMAL":48,"POSITION":20},"indices":76,"material":0,"mode":4},{"attributes":{"NORMAL":49,"POSITION":21},"indices":77,"material":0,"mode":4}]},{"name":"Cell_3_1","primitives":[{"attributes":{"NORMAL":50,"POSITION":22},"indices":78,"material":0,"mode":4},{"attributes":{"NORMAL":51,"POSITION":23},"indices":79,"material":0,"mode":4},{"attributes":{"NORMAL":52,"POSITION":24},"indices":80,"material":0,"mode":4},{"attributes":{"NORMAL":53,"POSITION":25},"indices":81,"material":0,"mode":4},{"attributes":{"NORMAL":54,"POSITION":26},"indices":82,"material":0,"mode":4},{"attributes":{"NORMAL":55,"POSITION":27},"indices":83,"material":0,"mode":4}]}],"nodes":[{"children":[1],"name":"geometry"},{"children":[2,5,8],"name":"Universe_0_Container_None"},{"children":[3,4],"name":"Material_0_None0"},{"mesh":0,"name":"Cell_1_0"},{"mesh":1,"name":"Cell_5_0"},{"children":[6,7],"name":"Material_2_None0"},{"mesh":2,"name":"Cell_2_2"},{"mesh":3,"name":"Cell_4_2"},{"children":[9],"name":"Material_1_None0"},{"mesh":4,"name":"Cell_3_1"}],"scene":0,"scenes":[{"nodes":[0]}]}